<svg xmlns="http://www.w3.org/2000/svg" viewBox="0 0 64 64">
  <!-- Head -->
  <ellipse cx="32" cy="34" rx="24" ry="22" fill="#334155"/>
  <!-- Ear tufts -->
  <polygon points="12,18 16,8 22,20" fill="#334155"/>
  <polygon points="52,18 48,8 42,20" fill="#334155"/>
  <!-- Eye circles (outer) -->
  <circle cx="22" cy="30" r="10" fill="#1e293b" stroke="#facc15" stroke-width="2"/>
  <circle cx="42" cy="30" r="10" fill="#1e293b" stroke="#facc15" stroke-width="2"/>
  <!-- Irises -->
  <circle cx="22" cy="30" r="5.5" fill="#facc15"/>
  <circle cx="42" cy="30" r="5.5" fill="#facc15"/>
  <!-- Pupils -->
  <circle cx="22" cy="30" r="2.5" fill="#0f172a"/>
  <circle cx="42" cy="30" r="2.5" fill="#0f172a"/>
  <!-- Eye glints -->
  <circle cx="24" cy="28.5" r="1" fill="white" opacity="0.8"/>
  <circle cx="44" cy="28.5" r="1" fill="white" opacity="0.8"/>
  <!-- Beak -->
  <polygon points="32,36 28,42 36,42" fill="#f59e0b"/>
  <polygon points="32,36 29,40 35,40" fill="#d97706"/>
  <!-- Chest feather pattern -->
  <path d="M24,46 Q28,50 32,46 Q36,50 40,46" fill="none" stroke="#475569" stroke-width="1.5" stroke-linecap="round"/>
  <path d="M26,50 Q30,53 32,50 Q34,53 38,50" fill="none" stroke="#475569" stroke-width="1.2" stroke-linecap="round"/>
</svg>
