<svg xmlns="http://www.w3.org/2000/svg" viewBox="0 0 64 64">
  <defs>
    <radialGradient id="eg" cx="50%" cy="40%">
      <stop offset="0%" stop-color="#fde047"/>
      <stop offset="100%" stop-color="#f59e0b"/>
    </radialGradient>
    <radialGradient id="bg" cx="50%" cy="30%">
      <stop offset="0%" stop-color="#475569"/>
      <stop offset="100%" stop-color="#1e293b"/>
    </radialGradient>
  </defs>
  <!-- Body -->
  <ellipse cx="32" cy="44" rx="16" ry="14" fill="#1e293b"/>
  <!-- Head -->
  <ellipse cx="32" cy="28" rx="22" ry="20" fill="url(#bg)"/>
  <!-- Ear tufts -->
  <path d="M12,16 L14,4 L22,16" fill="#334155"/>
  <path d="M42,16 L50,4 L52,16" fill="#334155"/>
  <path d="M13,14 L15,6 L20,15" fill="#475569" opacity="0.5"/>
  <path d="M44,15 L49,6 L51,14" fill="#475569" opacity="0.5"/>
  <!-- Facial disc -->
  <ellipse cx="22" cy="28" rx="13" ry="12" fill="#283040" opacity="0.6"/>
  <ellipse cx="42" cy="28" rx="13" ry="12" fill="#283040" opacity="0.6"/>
  <!-- Eye rings -->
  <circle cx="22" cy="27" r="9.5" fill="#0f172a" stroke="#ca8a04" stroke-width="1.5"/>
  <circle cx="42" cy="27" r="9.5" fill="#0f172a" stroke="#ca8a04" stroke-width="1.5"/>
  <!-- Irises -->
  <circle cx="22" cy="27" r="6" fill="url(#eg)"/>
  <circle cx="42" cy="27" r="6" fill="url(#eg)"/>
  <!-- Pupils -->
  <ellipse cx="22" cy="27" rx="2.8" ry="3.5" fill="#0f172a"/>
  <ellipse cx="42" cy="27" rx="2.8" ry="3.5" fill="#0f172a"/>
  <!-- Eye glints -->
  <circle cx="24.5" cy="25" r="1.5" fill="white" opacity="0.9"/>
  <circle cx="44.5" cy="25" r="1.5" fill="white" opacity="0.9"/>
  <circle cx="20" cy="29" r="0.7" fill="white" opacity="0.4"/>
  <circle cx="40" cy="29" r="0.7" fill="white" opacity="0.4"/>
  <!-- Brow ridge -->
  <path d="M12,22 Q17,17 24,20" fill="none" stroke="#475569" stroke-width="1.5" stroke-linecap="round"/>
  <path d="M52,22 Q47,17 40,20" fill="none" stroke="#475569" stroke-width="1.5" stroke-linecap="round"/>
  <!-- Beak -->
  <path d="M29,34 L32,40 L35,34" fill="#f59e0b"/>
  <path d="M30,34 L32,38 L34,34" fill="#d97706"/>
  <!-- Chest feathers -->
  <path d="M22,42 Q25,46 28,42 Q30,46 32,42 Q34,46 36,42 Q38,46 42,42" fill="none" stroke="#334155" stroke-width="1.2" stroke-linecap="round"/>
  <path d="M24,46 Q27,49 30,46 Q32,49 34,46 Q36,49 40,46" fill="none" stroke="#334155" stroke-width="1" stroke-linecap="round"/>
  <path d="M26,50 Q29,52 32,50 Q35,52 38,50" fill="none" stroke="#334155" stroke-width="0.8" stroke-linecap="round"/>
  <!-- Wing hints -->
  <path d="M10,34 Q8,42 14,48" fill="none" stroke="#334155" stroke-width="1.5" stroke-linecap="round"/>
  <path d="M54,34 Q56,42 50,48" fill="none" stroke="#334155" stroke-width="1.5" stroke-linecap="round"/>
</svg>
