<svg xmlns="http://www.w3.org/2000/svg" viewBox="0 0 64 64">
  <defs>
    <radialGradient id="iris" cx="40%" cy="38%" r="52%">
      <stop offset="0%" stop-color="#ffffff"/>
      <stop offset="18%" stop-color="#f4f6f9"/>
      <stop offset="40%" stop-color="#e4e9f0"/>
      <stop offset="65%" stop-color="#c8d1de"/>
      <stop offset="85%" stop-color="#9daabb"/>
      <stop offset="100%" stop-color="#7a8a9e"/>
    </radialGradient>
    <radialGradient id="head" cx="46%" cy="22%" r="60%">
      <stop offset="0%" stop-color="#7d91a8"/>
      <stop offset="12%" stop-color="#6a7f99"/>
      <stop offset="30%" stop-color="#4e6580"/>
      <stop offset="50%" stop-color="#374f6b"/>
      <stop offset="75%" stop-color="#1f3350"/>
      <stop offset="100%" stop-color="#101d30"/>
    </radialGradient>
    <radialGradient id="belly" cx="50%" cy="18%" r="68%">
      <stop offset="0%" stop-color="#bec8d8" stop-opacity="0.22"/>
      <stop offset="35%" stop-color="#7d91a8" stop-opacity="0.1"/>
      <stop offset="100%" stop-color="#101d30" stop-opacity="0"/>
    </radialGradient>
    <radialGradient id="disc" cx="50%" cy="40%" r="46%">
      <stop offset="0%" stop-color="#7d91a8" stop-opacity="0.18"/>
      <stop offset="50%" stop-color="#4e6580" stop-opacity="0.06"/>
      <stop offset="100%" stop-color="#1f3350" stop-opacity="0"/>
    </radialGradient>
    <linearGradient id="bk" x1="0" y1="0" x2="0.1" y2="1">
      <stop offset="0%" stop-color="#fde68a"/>
      <stop offset="25%" stop-color="#fbbf24"/>
      <stop offset="65%" stop-color="#d97706"/>
      <stop offset="100%" stop-color="#6b2f0a"/>
    </linearGradient>
    <linearGradient id="wl" x1="1" y1="0" x2="0" y2="1">
      <stop offset="0%" stop-color="#4e6580"/>
      <stop offset="35%" stop-color="#374f6b"/>
      <stop offset="100%" stop-color="#091322"/>
    </linearGradient>
    <linearGradient id="wr" x1="0" y1="0" x2="1" y2="1">
      <stop offset="0%" stop-color="#4e6580"/>
      <stop offset="35%" stop-color="#374f6b"/>
      <stop offset="100%" stop-color="#091322"/>
    </linearGradient>
    <linearGradient id="tuftL" x1="0.6" y1="1" x2="0.15" y2="0">
      <stop offset="0%" stop-color="#374f6b"/>
      <stop offset="50%" stop-color="#1f3350"/>
      <stop offset="100%" stop-color="#101d30"/>
    </linearGradient>
    <linearGradient id="tuftR" x1="0.4" y1="1" x2="0.85" y2="0">
      <stop offset="0%" stop-color="#374f6b"/>
      <stop offset="50%" stop-color="#1f3350"/>
      <stop offset="100%" stop-color="#101d30"/>
    </linearGradient>
    <radialGradient id="SocketL" cx="55%" cy="45%" r="55%">
      <stop offset="0%" stop-color="#060e1a"/>
      <stop offset="100%" stop-color="#000205"/>
    </radialGradient>
    <radialGradient id="SocketR" cx="45%" cy="45%" r="55%">
      <stop offset="0%" stop-color="#060e1a"/>
      <stop offset="100%" stop-color="#000205"/>
    </radialGradient>
    <filter id="eg"><feGaussianBlur stdDeviation="1.5" result="b"/><feMerge><feMergeNode in="b"/><feMergeNode in="SourceGraphic"/></feMerge></filter>
    <filter id="sg"><feGaussianBlur stdDeviation="4.5"/></filter>
    <filter id="sh"><feDropShadow dx="0" dy="0.6" stdDeviation="1" flood-color="#000" flood-opacity="0.4"/></filter>
    <filter id="inner"><feGaussianBlur stdDeviation="0.6"/></filter>
    <filter id="soft"><feGaussianBlur stdDeviation="0.4"/></filter>
  </defs>

  <!-- Ambient eye glow -->
  <ellipse cx="23" cy="25" rx="12" ry="10" fill="#c8d1de" opacity="0.04" filter="url(#sg)"/>
  <ellipse cx="41" cy="25" rx="12" ry="10" fill="#c8d1de" opacity="0.04" filter="url(#sg)"/>

  <!-- Body -->
  <path d="M16,37 Q15,50 21,56 Q26,60 32,61 Q38,60 43,56 Q49,50 48,37 Q41,42 32,42 Q23,42 16,37 Z" fill="#101d30"/>
  <path d="M16,37 Q15,50 21,56 Q26,60 32,61 Q38,60 43,56 Q49,50 48,37 Q41,42 32,42 Q23,42 16,37 Z" fill="url(#belly)"/>
  <!-- Body side shading -->
  <path d="M16,37 Q15,50 21,56 Q23,58 25,59" fill="none" stroke="#091322" stroke-width="0.5" opacity="0.2"/>
  <path d="M48,37 Q49,50 43,56 Q41,58 39,59" fill="none" stroke="#091322" stroke-width="0.5" opacity="0.2"/>

  <!-- Chest feathers -->
  <g stroke="#6a7f99" fill="none" opacity="0.28">
    <path d="M28,45 Q30,43 32,45" stroke-width="0.7"/>
    <path d="M32,45 Q34,43 36,45" stroke-width="0.7"/>
    <path d="M25,48 Q27.5,46 30,48" stroke-width="0.6"/>
    <path d="M30,48 Q32,46 34,48" stroke-width="0.6"/>
    <path d="M34,48 Q36.5,46 39,48" stroke-width="0.6"/>
    <path d="M26,51 Q28,49 30,51" stroke-width="0.5"/>
    <path d="M30,51 Q32,49 34,51" stroke-width="0.5"/>
    <path d="M34,51 Q36,49 38,51" stroke-width="0.5"/>
    <path d="M24,51 Q26,49 28,51" stroke-width="0.5"/>
    <path d="M28,54 Q30,52 32,54" stroke-width="0.4"/>
    <path d="M32,54 Q34,52 36,54" stroke-width="0.4"/>
    <path d="M36,54 Q38,52 40,54" stroke-width="0.4"/>
    <path d="M22,54 Q24,52 26,54" stroke-width="0.4"/>
    <path d="M30,57 Q32,55 34,57" stroke-width="0.3"/>
    <path d="M26,57 Q28,55 30,57" stroke-width="0.3"/>
    <path d="M34,57 Q36,55 38,57" stroke-width="0.3"/>
  </g>

  <!-- Wings -->
  <path d="M16,27 Q9,31 4,39 Q2.5,46 4.5,52 Q6.5,57 11,58 Q9,48 9,39 Q9,31 16,27 Z" fill="url(#wl)" filter="url(#sh)"/>
  <path d="M48,27 Q55,31 60,39 Q61.5,46 59.5,52 Q57.5,57 53,58 Q55,48 55,39 Q55,31 48,27 Z" fill="url(#wr)" filter="url(#sh)"/>
  <!-- Wing primary feathers -->
  <g stroke="#4e6580" fill="none" opacity="0.2" stroke-width="0.4">
    <path d="M4.5,39 Q6.5,38 9,39.5"/>
    <path d="M3.8,43 Q6,41.5 9,42.5"/>
    <path d="M4,47 Q6.5,45.5 9,46.5"/>
    <path d="M4.5,51 Q6.5,49.5 9,50.5"/>
    <path d="M5.5,54.5 Q7.5,53 9.5,54"/>
    <path d="M59.5,39 Q57.5,38 55,39.5"/>
    <path d="M60.2,43 Q58,41.5 55,42.5"/>
    <path d="M60,47 Q57.5,45.5 55,46.5"/>
    <path d="M59.5,51 Q57.5,49.5 55,50.5"/>
    <path d="M58.5,54.5 Q56.5,53 54.5,54"/>
  </g>
  <!-- Wing edge highlight -->
  <path d="M4,39 Q3,44 4.5,52" fill="none" stroke="#6a7f99" stroke-width="0.3" opacity="0.12"/>
  <path d="M60,39 Q61,44 59.5,52" fill="none" stroke="#6a7f99" stroke-width="0.3" opacity="0.12"/>

  <!-- Head -->
  <ellipse cx="32" cy="24" rx="19" ry="19.5" fill="url(#head)"/>
  <!-- Crown specular -->
  <ellipse cx="29" cy="11" rx="7" ry="3.5" fill="#7d91a8" opacity="0.06"/>
  <!-- Head side contour -->
  <path d="M13,24 Q13,14 20,9" fill="none" stroke="#091322" stroke-width="0.4" opacity="0.15"/>
  <path d="M51,24 Q51,14 44,9" fill="none" stroke="#091322" stroke-width="0.4" opacity="0.15"/>

  <!-- Facial disc -->
  <path d="M32,36 Q20,33 16,25 Q14,18.5 17.5,13.5 Q22,9.5 32,16 Q42,9.5 46.5,13.5 Q50,18.5 48,25 Q44,33 32,36 Z" fill="url(#disc)"/>
  <path d="M32,36 Q20,33 16,25 Q14,18.5 17.5,13.5 Q22,9.5 32,16 Q42,9.5 46.5,13.5 Q50,18.5 48,25 Q44,33 32,36 Z" fill="none" stroke="#7d91a8" stroke-width="0.3" opacity="0.22"/>
  <!-- Inner disc -->
  <path d="M32,34 Q22,31 18,25 Q16.5,20 19,16 Q23,12.5 32,17.5 Q41,12.5 45,16 Q47.5,20 46,25 Q42,31 32,34 Z" fill="none" stroke="#6a7f99" stroke-width="0.2" opacity="0.12"/>
  <!-- Center divider -->
  <path d="M32,16 L32,33" stroke="#4e6580" stroke-width="0.2" opacity="0.1"/>

  <!-- Ear tufts -->
  <path d="M14.5,12.5 Q11,2 16,0 Q18,4 23.5,12.5 Z" fill="url(#tuftL)"/>
  <path d="M49.5,12.5 Q53,2 48,0 Q46,4 40.5,12.5 Z" fill="url(#tuftR)"/>
  <!-- Tuft feather strands -->
  <path d="M15.8,9 Q13.5,3.5 16,1" fill="none" stroke="#7d91a8" stroke-width="0.35" opacity="0.2"/>
  <path d="M17.2,8 Q15.5,4 16.5,2" fill="none" stroke="#6a7f99" stroke-width="0.25" opacity="0.12"/>
  <path d="M18.5,7.5 Q17,4.5 17.5,3" fill="none" stroke="#4e6580" stroke-width="0.2" opacity="0.08"/>
  <path d="M48.2,9 Q50.5,3.5 48,1" fill="none" stroke="#7d91a8" stroke-width="0.35" opacity="0.2"/>
  <path d="M46.8,8 Q48.5,4 47.5,2" fill="none" stroke="#6a7f99" stroke-width="0.25" opacity="0.12"/>
  <path d="M45.5,7.5 Q47,4.5 46.5,3" fill="none" stroke="#4e6580" stroke-width="0.2" opacity="0.08"/>

  <!-- Eye sockets -->
  <ellipse cx="23" cy="25" rx="9" ry="8.8" fill="url(#SocketL)"/>
  <ellipse cx="41" cy="25" rx="9" ry="8.8" fill="url(#SocketR)"/>
  <!-- Socket depth ring -->
  <ellipse cx="23" cy="25.5" rx="8.2" ry="7.8" fill="#000" opacity="0.12" filter="url(#inner)"/>
  <ellipse cx="41" cy="25.5" rx="8.2" ry="7.8" fill="#000" opacity="0.12" filter="url(#inner)"/>
  <!-- Socket rim -->
  <ellipse cx="23" cy="25" rx="9" ry="8.8" fill="none" stroke="#6a7f99" stroke-width="0.35" opacity="0.15"/>
  <ellipse cx="41" cy="25" rx="9" ry="8.8" fill="none" stroke="#6a7f99" stroke-width="0.35" opacity="0.15"/>

  <!-- Irises -->
  <circle cx="23" cy="25" r="6.8" fill="url(#iris)" filter="url(#eg)"/>
  <circle cx="41" cy="25" r="6.8" fill="url(#iris)" filter="url(#eg)"/>
  <!-- Iris outer ring -->
  <circle cx="23" cy="25" r="6.8" fill="none" stroke="#7a8a9e" stroke-width="0.5" opacity="0.35"/>
  <circle cx="41" cy="25" r="6.8" fill="none" stroke="#7a8a9e" stroke-width="0.5" opacity="0.35"/>
  <!-- Iris fibers -->
  <g stroke="#9daabb" stroke-width="0.12" opacity="0.15">
    <line x1="23" y1="18.8" x2="23" y2="31.2"/>
    <line x1="16.8" y1="25" x2="29.2" y2="25"/>
    <line x1="18.6" y1="20.6" x2="27.4" y2="29.4"/>
    <line x1="27.4" y1="20.6" x2="18.6" y2="29.4"/>
    <line x1="20.2" y1="19.2" x2="25.8" y2="30.8"/>
    <line x1="25.8" y1="19.2" x2="20.2" y2="30.8"/>
    <line x1="17.2" y1="22" x2="28.8" y2="28"/>
    <line x1="28.8" y1="22" x2="17.2" y2="28"/>
    <line x1="41" y1="18.8" x2="41" y2="31.2"/>
    <line x1="34.8" y1="25" x2="47.2" y2="25"/>
    <line x1="36.6" y1="20.6" x2="45.4" y2="29.4"/>
    <line x1="45.4" y1="20.6" x2="36.6" y2="29.4"/>
    <line x1="38.2" y1="19.2" x2="43.8" y2="30.8"/>
    <line x1="43.8" y1="19.2" x2="38.2" y2="30.8"/>
    <line x1="35.2" y1="22" x2="46.8" y2="28"/>
    <line x1="46.8" y1="22" x2="35.2" y2="28"/>
  </g>

  <!-- Pupils -->
  <circle cx="23" cy="25" r="2.6" fill="#010409"/>
  <circle cx="41" cy="25" r="2.6" fill="#010409"/>
  <circle cx="23" cy="25" r="3" fill="#010409" opacity="0.25" filter="url(#soft)"/>
  <circle cx="41" cy="25" r="3" fill="#010409" opacity="0.25" filter="url(#soft)"/>

  <!-- Eye highlights -->
  <circle cx="25.8" cy="22.5" r="1.8" fill="white" opacity="0.94"/>
  <circle cx="43.8" cy="22.5" r="1.8" fill="white" opacity="0.94"/>
  <circle cx="21" cy="27.5" r="0.8" fill="white" opacity="0.2"/>
  <circle cx="39" cy="27.5" r="0.8" fill="white" opacity="0.2"/>
  <circle cx="24" cy="22" r="0.45" fill="white" opacity="0.55"/>
  <circle cx="42" cy="22" r="0.45" fill="white" opacity="0.55"/>

  <!-- Eyelids -->
  <path d="M14,22 Q18.5,17.5 23,19.2 Q27.5,17.5 32,22" fill="#1f3350" opacity="0.52"/>
  <path d="M32,22 Q36.5,17.5 41,19.2 Q45.5,17.5 50,22" fill="#1f3350" opacity="0.52"/>
  <!-- Eyelid rim light -->
  <path d="M14.5,22 Q18.5,18 23,19.7 Q27.5,18 31.5,22" fill="none" stroke="#6a7f99" stroke-width="0.3" opacity="0.28"/>
  <path d="M32.5,22 Q36.5,18 41,19.7 Q45.5,18 49.5,22" fill="none" stroke="#6a7f99" stroke-width="0.3" opacity="0.28"/>
  <!-- Lower lids -->
  <path d="M15.5,29 Q19,30.2 23,29.8 Q27,30.2 30.5,29" fill="none" stroke="#374f6b" stroke-width="0.25" opacity="0.18"/>
  <path d="M33.5,29 Q37,30.2 41,29.8 Q45,30.2 48.5,29" fill="none" stroke="#374f6b" stroke-width="0.25" opacity="0.18"/>

  <!-- Brows -->
  <path d="M13.5,16.5 Q18.5,12.5 26,15" fill="none" stroke="#7d91a8" stroke-width="1.4" stroke-linecap="round"/>
  <path d="M50.5,16.5 Q45.5,12.5 38,15" fill="none" stroke="#7d91a8" stroke-width="1.4" stroke-linecap="round"/>
  <!-- Brow highlight -->
  <path d="M14.5,16 Q19,13 25,14.8" fill="none" stroke="#9daabb" stroke-width="0.3" opacity="0.15"/>
  <path d="M49.5,16 Q45,13 39,14.8" fill="none" stroke="#9daabb" stroke-width="0.3" opacity="0.15"/>

  <!-- Beak -->
  <path d="M29.8,32 Q32,40.5 34.2,32 Z" fill="url(#bk)"/>
  <!-- Beak highlight -->
  <path d="M31.2,33 Q32,36 32.8,33" fill="none" stroke="#fef9c3" stroke-width="0.25" opacity="0.28"/>
  <!-- Beak ridge -->
  <path d="M32,32.2 L32,37.5" stroke="#b45309" stroke-width="0.2" opacity="0.25"/>
  <!-- Nostrils -->
  <ellipse cx="30.9" cy="34.5" rx="0.35" ry="0.25" fill="#6b2f0a" opacity="0.5"/>
  <ellipse cx="33.1" cy="34.5" rx="0.35" ry="0.25" fill="#6b2f0a" opacity="0.5"/>

  <!-- Mouth -->
  <path d="M29.2,39.5 Q32,42.2 34.8,39.5" fill="none" stroke="#374f6b" stroke-width="0.45" stroke-linecap="round" opacity="0.25"/>

  <!-- Feet -->
  <g fill="none" stroke-linecap="round">
    <!-- Legs -->
    <path d="M27,58 Q27,60 25.8,61" stroke="#374f6b" stroke-width="1" opacity="0.35"/>
    <path d="M37,58 Q37,60 38.2,61" stroke="#374f6b" stroke-width="1" opacity="0.35"/>
    <!-- Talons -->
    <g stroke="#a3440b" stroke-width="1">
      <path d="M25.8,61 L23.2,63.5 M25.8,61 L25.8,64 M25.8,61 L28.4,63.5"/>
      <path d="M38.2,61 L35.6,63.5 M38.2,61 L38.2,64 M38.2,61 L40.8,63.5"/>
    </g>
    <!-- Talon points -->
    <g fill="#4a1e05">
      <circle cx="23" cy="63.7" r="0.3"/>
      <circle cx="25.8" cy="64.2" r="0.3"/>
      <circle cx="28.6" cy="63.7" r="0.3"/>
      <circle cx="35.4" cy="63.7" r="0.3"/>
      <circle cx="38.2" cy="64.2" r="0.3"/>
      <circle cx="41" cy="63.7" r="0.3"/>
    </g>
  </g>
</svg>
